<svg width="18" height="19" viewBox="0 0 18 19" fill="none" xmlns="http://www.w3.org/2000/svg">
<rect width="18" height="18" transform="translate(0 0.5)" fill="white" fill-opacity="0.01"/>
<g clip-path="url(#clip0_36_9509)">
<path d="M12.742 11.844C13.7103 10.5227 14.144 8.88447 13.9563 7.25713C13.7686 5.62979 12.9734 4.13332 11.7298 3.06711C10.4861 2.0009 8.88576 1.44358 7.24885 1.50666C5.61194 1.56973 4.0592 2.24854 2.90128 3.40729C1.74336 4.56603 1.06566 6.11926 1.00376 7.75621C0.94186 9.39317 1.50032 10.9931 2.56742 12.236C3.63452 13.4789 5.13156 14.273 6.75903 14.4596C8.38651 14.6461 10.0244 14.2112 11.345 13.242H11.344C11.374 13.282 11.406 13.32 11.442 13.357L15.292 17.207C15.4795 17.3946 15.7339 17.5001 15.9992 17.5002C16.2644 17.5003 16.5189 17.395 16.7065 17.2075C16.8942 17.02 16.9996 16.7656 16.9997 16.5003C16.9998 16.2351 16.8945 15.9806 16.707 15.793L12.857 11.943C12.8213 11.9068 12.7828 11.8734 12.742 11.843V11.844ZM13 7.99998C13 8.72225 12.8578 9.43745 12.5814 10.1047C12.3049 10.772 11.8998 11.3783 11.3891 11.8891C10.8784 12.3998 10.2721 12.8049 9.60477 13.0813C8.93748 13.3577 8.22228 13.5 7.50001 13.5C6.77774 13.5 6.06254 13.3577 5.39525 13.0813C4.72796 12.8049 4.12165 12.3998 3.61093 11.8891C3.1002 11.3783 2.69508 10.772 2.41868 10.1047C2.14227 9.43745 2.00001 8.72225 2.00001 7.99998C2.00001 6.54129 2.57948 5.14234 3.61093 4.11089C4.64238 3.07944 6.04132 2.49998 7.50001 2.49998C8.9587 2.49998 10.3576 3.07944 11.3891 4.11089C12.4206 5.14234 13 6.54129 13 7.99998Z" fill="#6C757D"/>
</g>
<defs>
<clipPath id="clip0_36_9509">
<rect width="16" height="16" fill="white" transform="translate(1 1.5)"/>
</clipPath>
</defs>
</svg>
